<?xml version="1.0" encoding="utf-8"?>
<!-- Generator: Adobe Illustrator 25.0.0, SVG Export Plug-In . SVG Version: 6.00 Build 0)  -->
<svg version="1.1" id="Layer_1" xmlns="http://www.w3.org/2000/svg" xmlns:xlink="http://www.w3.org/1999/xlink" x="0px" y="0px"
	 viewBox="0 0 1366 768" style="enable-background:new 0 0 1366 768;" xml:space="preserve">
<style type="text/css">
	.st0{fill:#8248A3;}
</style>
<g>
	<polygon class="st0" points="602.5,417.5 640.5,476.5 650.92,451.62 616.5,398.5 	"/>
	<path class="st0" d="M687.5,317.5l30-6l-82-43l-24,68l13.42,5.86l15.58-49.86C640.5,292.5,677.5,310.5,687.5,317.5z"/>
	<polygon class="st0" points="620.5,356.5 676.5,390.5 650.92,451.62 662.5,469.5 698.5,374.5 624.92,342.36 	"/>
	<path class="st0" d="M752.5,333.5l-44,5v138l22-28V394l19,6.5l15-33L752.5,333.5z M743,363l-6.5,21h-12v-30.5H743V363z"/>
</g>
</svg>
